<?xml version="1.0" standalone="no"?>
<!DOCTYPE svg PUBLIC "-//W3C//DTD SVG 20010904//EN"
 "http://www.w3.org/TR/2001/REC-SVG-20010904/DTD/svg10.dtd">
<svg version="1.0" xmlns="http://www.w3.org/2000/svg"
 width="500.000000pt" height="500.000000pt" viewBox="0 0 500.000000 500.000000"
 preserveAspectRatio="xMidYMid meet">

<g transform="translate(0.000000,500.000000) scale(0.100000,-0.100000)"
fill="#000000" stroke="none">
<path d="M137 4113 c-17 -17 -9 -46 92 -313 10 -25 66 -174 126 -331 129 -342
113 -325 259 -274 l94 33 -9 -33 c-5 -18 -32 -97 -59 -174 -45 -127 -48 -142
-32 -147 9 -3 25 -10 34 -15 21 -11 238 -12 255 -1 7 4 47 93 89 198 42 104
79 192 83 197 9 9 28 -33 109 -231 72 -176 66 -172 243 -172 117 0 129 2 142
20 8 12 90 221 182 465 155 412 167 447 155 474 -6 16 -71 87 -143 158 l-130
128 -54 -170 c-30 -93 -79 -249 -109 -345 -31 -96 -62 -196 -71 -222 -8 -27
-18 -48 -21 -48 -12 0 -62 152 -62 185 0 17 42 148 94 293 85 241 92 266 82
297 l-11 35 -146 0 c-105 0 -149 -4 -156 -12 -6 -7 -29 -80 -53 -163 -23 -82
-46 -157 -50 -164 -5 -10 -15 10 -30 60 -54 183 -64 215 -83 246 l-19 33 -148
0 c-82 0 -151 -3 -153 -7 -3 -5 41 -138 98 -298 l102 -290 -35 -100 c-18 -55
-37 -106 -41 -112 -3 -7 -57 148 -119 345 -62 196 -125 381 -139 410 l-26 52
-167 0 c-92 0 -170 -3 -173 -7z"/>
<path d="M2097 4113 c-4 -3 -7 -282 -7 -619 l0 -613 33 -16 c28 -13 89 -15
452 -13 l420 3 3 129 c2 79 -1 133 -8 140 -5 5 -10 18 -10 28 0 17 -16 18
-260 18 l-261 0 3 83 3 82 98 3 c73 2 105 7 128 21 l30 18 -61 23 c-33 12 -60
28 -60 34 0 6 34 42 75 79 70 64 92 97 63 97 -9 0 -9 3 0 12 7 7 12 16 12 20
0 4 -65 8 -145 8 l-146 0 3 68 3 67 253 5 c210 4 254 8 262 20 16 26 12 233
-5 256 -8 10 -15 27 -15 37 0 16 -19 17 -255 17 -215 0 -261 -3 -287 -16 -28
-15 -32 -15 -40 0 -8 13 -30 16 -142 16 -73 0 -136 -3 -139 -7z"/>
<path d="M3537 4114 c-4 -4 -7 -84 -7 -178 l1 -171 42 -26 c63 -40 284 -149
302 -149 18 0 24 25 27 120 l3 75 117 3 117 3 16 -30 c19 -38 19 -114 0 -156
-20 -42 -51 -55 -127 -55 l-62 0 60 -36 c32 -20 80 -47 107 -60 26 -13 47 -26
47 -29 0 -2 -146 -78 -325 -167 l-325 -163 0 -107 0 -107 32 -15 c40 -20 307
-23 326 -4 8 8 12 62 12 177 0 137 -3 167 -16 182 -42 47 36 46 135 0 7 -4 57
-82 110 -174 69 -120 105 -172 125 -182 39 -21 344 -22 352 -2 3 8 -47 104
-111 214 -63 111 -115 206 -115 213 0 6 20 35 45 63 25 29 60 81 78 117 30 61
32 70 32 180 0 112 -1 117 -36 191 -20 42 -54 95 -74 118 -31 34 -44 41 -74
41 -35 0 -38 3 -47 37 -8 33 -16 40 -59 58 -46 18 -77 20 -375 23 -179 2 -329
0 -333 -4z"/>
<path d="M520 2331 c0 -400 1 -410 24 -505 53 -206 148 -329 324 -416 96 -47
185 -63 327 -57 202 8 225 31 129 128 l-56 57 23 15 c13 9 111 46 217 83 149
52 197 73 209 91 40 61 46 124 50 537 4 372 3 402 -14 438 l-18 38 -182 0
-183 0 0 -50 c0 -41 3 -50 18 -50 42 -1 44 -13 12 -106 l-30 -89 0 -240 c0
-204 -3 -251 -19 -308 -36 -130 -105 -191 -216 -191 -92 0 -140 31 -186 117
-19 37 -55 87 -79 112 -48 48 -46 62 9 85 16 6 32 21 35 33 3 12 6 154 6 314
0 256 -2 298 -17 333 l-18 40 -182 0 -183 0 0 -409z"/>
<path d="M1860 2582 l0 -158 35 -17 c42 -20 88 -22 103 -4 6 6 12 25 14 42 2
19 9 31 20 33 10 2 144 -60 298 -137 154 -78 289 -141 300 -141 18 0 20 7 20
83 0 51 5 88 12 95 8 8 63 12 183 12 120 0 175 4 183 12 15 15 17 284 2 293
-5 3 -10 15 -10 26 0 19 -13 19 -580 19 l-580 0 0 -158z"/>
<path d="M3150 2068 l0 -673 31 -17 c26 -15 56 -18 188 -18 109 0 161 4 169
12 9 9 12 134 12 503 0 369 3 494 12 503 17 17 183 15 245 -3 104 -31 173
-155 173 -310 0 -185 -92 -318 -241 -349 l-61 -12 79 -46 c43 -26 139 -76 214
-113 134 -66 137 -67 167 -51 44 23 126 119 167 197 53 100 76 203 77 334 0
155 -33 289 -91 364 l-19 25 -60 -32 c-33 -18 -62 -32 -64 -32 -3 0 -8 46 -12
103 -8 133 -24 166 -96 205 -30 17 -86 40 -125 53 -66 22 -88 23 -417 27
l-348 4 0 -674z"/>
<path d="M2428 2039 l-178 -89 0 -279 0 -280 32 -15 c17 -9 56 -16 89 -16 64
0 79 13 79 65 0 40 22 40 105 0 42 -19 80 -33 85 -30 14 8 13 685 0 685 -5 0
-10 11 -10 25 0 14 -6 25 -12 24 -7 0 -93 -40 -190 -90z"/>
<path d="M4320 1510 l0 -110 47 -21 c54 -25 158 -24 174 2 16 26 11 174 -8
208 l-18 31 -97 0 -98 0 0 -110z"/>
</g>
</svg>
