<?xml version="1.0" standalone="no"?>
<!DOCTYPE svg PUBLIC "-//W3C//DTD SVG 20010904//EN"
 "http://www.w3.org/TR/2001/REC-SVG-20010904/DTD/svg10.dtd">
<svg version="1.0" xmlns="http://www.w3.org/2000/svg"
 width="500.000000pt" height="500.000000pt" viewBox="0 0 500.000000 500.000000"
 preserveAspectRatio="xMidYMid meet">

<g transform="translate(0.000000,500.000000) scale(0.100000,-0.100000)"
fill="#000000" stroke="none">
<path d="M137 4113 c-12 -12 -7 -47 14 -103 106 -275 293 -772 300 -797 6 -18
12 -33 14 -33 2 0 61 20 130 44 69 25 125 41 125 36 0 -5 -29 -92 -64 -194
l-65 -185 42 -6 c23 -3 87 -5 142 -3 l100 3 72 180 c40 99 82 198 92 220 l19
40 11 -25 c6 -14 43 -104 82 -200 39 -96 77 -185 85 -198 15 -22 20 -23 148
-21 73 0 138 4 144 8 9 5 134 328 272 701 15 41 42 113 59 159 l32 85 -133
133 -133 134 -22 -68 c-105 -332 -142 -450 -186 -591 -28 -89 -52 -161 -53
-159 -2 1 -23 59 -47 128 -30 86 -41 131 -36 144 5 11 36 99 70 195 33 96 76
217 95 269 19 52 34 98 34 103 0 14 -296 10 -307 -4 -6 -7 -31 -87 -57 -178
-27 -91 -51 -171 -55 -178 -5 -9 -21 31 -41 100 -18 62 -43 148 -57 191 l-24
77 -148 0 c-81 0 -150 -3 -153 -6 -3 -3 3 -31 14 -62 35 -99 139 -394 162
-462 l23 -65 -41 -122 c-22 -68 -43 -123 -46 -123 -3 0 -18 42 -34 93 -17 50
-42 130 -57 177 -49 154 -150 474 -165 523 l-16 47 -167 0 c-92 0 -171 -3
-174 -7z"/>
<path d="M2095 4108 c-3 -7 -4 -287 -3 -623 l3 -610 440 0 440 0 3 148 3 147
-276 0 -275 0 0 100 0 100 148 1 147 0 -87 37 c-49 20 -88 38 -87 41 0 3 45
46 100 95 54 49 99 93 99 97 0 5 -72 9 -160 9 l-160 0 0 85 0 85 265 0 265 0
0 150 0 150 -255 0 c-215 0 -261 -3 -287 -16 -28 -15 -32 -15 -40 0 -8 13 -30
16 -144 16 -98 0 -136 -3 -139 -12z"/>
<path d="M3537 4114 c-4 -4 -7 -84 -7 -178 l0 -171 165 -83 c91 -45 167 -82
170 -82 3 0 5 50 5 110 l0 110 119 0 119 0 31 -35 c27 -31 31 -43 31 -91 0
-66 -21 -117 -56 -133 -14 -6 -53 -11 -87 -12 l-62 0 113 -57 c61 -31 112 -59
112 -62 0 -3 -149 -79 -330 -170 l-331 -165 3 -110 3 -110 165 0 165 0 3 193
2 193 71 -3 71 -3 103 -180 c57 -99 109 -186 115 -193 9 -10 55 -12 186 -12
95 1 176 5 178 8 2 4 -54 107 -124 229 l-128 221 48 47 c81 80 130 197 130
311 0 92 -51 224 -113 292 -17 18 -31 22 -79 22 l-59 0 16 31 c9 17 15 32 13
34 -2 2 -26 14 -53 27 -48 22 -61 23 -375 26 -179 2 -329 0 -333 -4z"/>
<path d="M520 2331 c0 -399 1 -411 24 -504 27 -106 40 -136 98 -222 69 -103
177 -177 309 -212 110 -29 352 -19 409 17 12 8 1 24 -59 83 -41 42 -69 77 -63
81 10 6 213 79 369 133 39 13 76 30 81 36 6 7 18 37 28 67 15 48 18 108 22
493 l4 437 -186 0 -186 0 0 -51 c0 -54 -1 -53 58 -32 17 7 16 -1 -23 -112
l-35 -100 0 -240 c0 -265 -11 -337 -64 -413 -74 -107 -242 -119 -329 -23 -19
21 -45 61 -57 88 -11 26 -46 74 -77 105 l-56 57 38 15 c20 9 44 16 51 16 12 0
14 59 14 345 l0 345 -185 0 -185 0 0 -409z"/>
<path d="M1860 2580 l0 -160 60 0 60 0 0 43 c0 24 3 46 6 50 4 3 51 -16 105
-43 54 -28 112 -50 129 -50 20 0 30 -5 30 -15 0 -17 355 -199 370 -190 6 4 10
51 10 106 l0 99 195 0 196 0 -3 158 -3 157 -577 3 -578 2 0 -160z"/>
<path d="M3150 2067 l0 -675 63 -7 c34 -3 116 -5 182 -3 l120 3 5 515 5 515
110 -1 c61 0 127 -6 147 -13 124 -41 198 -167 198 -338 0 -183 -93 -316 -242
-347 l-62 -12 203 -103 c232 -117 205 -116 305 -14 64 65 125 178 153 283 24
89 24 301 0 387 -22 80 -54 153 -66 153 -6 0 -37 -16 -70 -35 -32 -19 -64 -35
-69 -35 -5 0 -12 37 -16 83 -17 205 -14 196 -62 227 -24 15 -81 40 -126 56
l-83 28 -347 4 -348 4 0 -675z"/>
<path d="M2428 2039 l-178 -89 0 -279 c0 -319 -10 -290 101 -287 l64 1 5 58 5
58 93 -47 c77 -39 95 -45 103 -33 12 20 7 702 -6 705 -5 2 -90 -37 -187 -87z"/>
<path d="M4322 1508 l3 -113 98 -3 97 -3 0 116 0 115 -100 0 -101 0 3 -112z"/>
</g>
</svg>
